<?xml version="1.0" encoding="UTF-8"?>
<svg width="167px" height="50px" viewBox="0 0 167 50" version="1.1" xmlns="http://www.w3.org/2000/svg" xmlns:xlink="http://www.w3.org/1999/xlink">
    <!-- Generator: Sketch 47.1 (45422) - http://www.bohemiancoding.com/sketch -->
    <title>logo-black</title>
    <desc>Created with Sketch.</desc>
    <defs></defs>
    <g id="Symbols" stroke="none" stroke-width="1" fill="none" fill-rule="evenodd">
        <g id="header-/-light" transform="translate(-260.000000, -50.000000)">
            <g id="header">
                <g id="logo-black" transform="translate(260.000000, 50.000000)">
                    <g id="sign">
                        <path d="M47.4103873,49.9058099 L2.49524648,49.9058099 C1.12288732,49.9058099 0,48.7829225 0,47.4105634 L0,2.49542254 C0,1.12288732 1.12288732,1.0658141e-14 2.49524648,1.0658141e-14 L47.4103873,1.0658141e-14 C48.7827465,1.0658141e-14 49.9056338,1.12288732 49.9056338,2.49542254 L49.9056338,47.4105634 C49.9056338,48.7829225 48.7827465,49.9058099 47.4103873,49.9058099" id="Page-1" fill="#003DA6"></path>
                        <path d="M40.4245246,42.3283451 L40.4245246,42.3283451 C41.4035739,42.3283451 42.2085035,41.6653169 42.3283979,40.8091549 L41.2676585,27.8457746 L31.9236444,22.8959507 L31.9236444,27.8051056 L22.6764613,22.9054577 L22.6764613,27.865669 L15.2220599,23.9908451 L13.9595599,7.3943662 L8.23948944,7.3943662 L7.39441901,40.5297535 L7.39794014,40.5297535 C7.39653169,40.5487676 7.39494718,40.5695423 7.39494718,40.5911972 C7.39494718,41.5024648 8.1690669,42.246831 9.15551056,42.3216549 L9.15551056,42.3283451 L40.4245246,42.3283451 Z" id="Fill-1" fill="#FFFFFF"></path>
                    </g>
                    <g id="factory" transform="translate(70.000000, 17.000000)" fill="#1E252B">
                        <path d="M9.19655861,0.646700855 C9.56254345,0.646700855 9.74570704,0.829606838 9.74570704,1.17490598 L9.74570704,3.36909402 C9.74570704,3.7554188 9.58308516,3.89764103 9.19655861,3.89764103 L3.84544269,3.89764103 C3.60133868,3.89764103 3.5400559,3.97866667 3.5400559,4.20191453 L3.5400559,6.29490598 C3.5400559,6.53866667 3.60133868,6.59952137 3.84544269,6.59952137 L8.50464529,6.59952137 C8.89117183,6.59952137 9.05413608,6.76225641 9.05413608,7.14823932 L9.05413608,9.32225641 C9.05413608,9.70823932 8.89117183,9.85046154 8.50464529,9.85046154 L3.84544269,9.85046154 C3.60133868,9.85046154 3.5400559,9.93182906 3.5400559,10.1554188 L3.5400559,14.3407179 C3.5400559,14.7267009 3.37743402,14.8689231 2.99090748,14.8689231 L0.528983315,14.8689231 C0.183197833,14.8689231 3.42361864e-05,14.6860171 3.42361864e-05,14.3407179 L3.42361864e-05,1.17490598 C3.42361864e-05,0.788581197 0.183197833,0.646700855 0.528983315,0.646700855 L9.19655861,0.646700855 Z" id="Fill-1"></path>
                        <path d="M19.0843458,9.18 L17.761802,6.37623932 L16.4392581,9.18 C16.398517,9.2408547 16.3783177,9.28188034 16.3783177,9.34239316 C16.3783177,9.4442735 16.4597998,9.48495726 16.6022223,9.48495726 L18.9011822,9.48495726 C19.0641465,9.48495726 19.1250869,9.4442735 19.1250869,9.34239316 C19.1250869,9.28188034 19.1045452,9.22068376 19.0843458,9.18 M18.9011822,1.41863248 L25.2697976,14.1984615 C25.330738,14.3205128 25.3714791,14.4422222 25.3714791,14.5642735 C25.3714791,14.7673504 25.2290566,14.8688889 24.9236698,14.8688889 L22.3398648,14.8688889 C21.8311151,14.8688889 21.6479515,14.7673504 21.4651302,14.3406838 L20.6715354,12.654188 C20.5695116,12.4309402 20.5085712,12.3902564 20.2846665,12.3902564 L15.2389374,12.3902564 C15.0150327,12.3902564 14.9540923,12.4309402 14.8524108,12.654188 L14.0793577,14.3406838 C13.8958518,14.7673504 13.7130306,14.8688889 13.2244802,14.8688889 L10.7423567,14.8688889 C10.4373122,14.8688889 10.274348,14.7673504 10.274348,14.5642735 C10.274348,14.4422222 10.3150891,14.3205128 10.3760295,14.1984615 L16.7446449,1.41863248 C17.1513707,0.605982906 17.4160165,0.342051282 17.8230847,0.342051282 C18.2096113,0.342051282 18.4944563,0.605982906 18.9011822,1.41863248" id="Fill-3"></path>
                        <path d="M38.6365291,13.2232821 C37.1715627,14.4420855 35.3200698,15.1333675 33.3056126,15.1333675 C29.0534782,15.1942222 25.6555367,11.963453 25.7366765,7.83900855 C25.6757361,3.5928547 29.0534782,0.32174359 33.4685768,0.382598291 C35.4826917,0.382598291 37.2732442,1.09336752 38.7180113,2.29234188 C38.8806332,2.43422222 38.9621153,2.5562735 38.9621153,2.67832479 C38.9621153,2.77986325 38.9213742,2.90157265 38.8196927,3.04379487 L37.6395714,4.70977778 C37.5173482,4.89302564 37.395125,4.97405128 37.2530449,4.97405128 C37.1308217,4.97405128 36.9883991,4.91319658 36.8459766,4.81165812 C35.7473374,4.01917949 34.6079571,3.63319658 33.4480351,3.63319658 C31.1083341,3.63319658 29.3992637,5.31969231 29.3992637,7.77781197 C29.3992637,10.1552479 31.1083341,11.8824274 33.4480351,11.8824274 C34.6890969,11.8824274 35.8490189,11.4759316 36.8867177,10.683453 C37.0493395,10.5614017 37.1917621,10.500547 37.2934436,10.500547 C37.4362085,10.500547 37.5173482,10.5819145 37.6597707,10.7446496 L38.8196927,12.4106325 C38.9008325,12.5326838 38.9419159,12.6540513 38.9419159,12.7559316 C38.9419159,12.8779829 38.8398921,13.0403761 38.6365291,13.2232821" id="Fill-5"></path>
                        <path d="M40.7921764,3.89753846 C40.4463909,3.89753846 40.2632273,3.7142906 40.2632273,3.36899145 L40.2632273,1.17480342 C40.2632273,0.788478632 40.4463909,0.646598291 40.7921764,0.646598291 L51.372185,0.646598291 C51.759054,0.646598291 51.9014765,0.788478632 51.9014765,1.17480342 L51.9014765,3.36899145 C51.9014765,3.7142906 51.759054,3.89753846 51.372185,3.89753846 L48.1577495,3.89753846 C47.9338449,3.89753846 47.8523627,3.9785641 47.8523627,4.20215385 L47.8523627,14.3409573 C47.8523627,14.6862564 47.7099402,14.8688205 47.3234137,14.8688205 L44.8412901,14.8688205 C44.4951623,14.8688205 44.3123411,14.6862564 44.3123411,14.3409573 L44.3123411,4.20215385 C44.3123411,3.9785641 44.2305166,3.89753846 44.0069543,3.89753846 L40.7921764,3.89753846 Z" id="Fill-8"></path>
                        <path d="M60.5682301,3.63329915 C58.3096689,3.63329915 56.6207978,5.31945299 56.6207978,7.77791453 C56.6207978,10.2363761 58.2894696,11.8825299 60.5476884,11.8825299 C62.7860503,11.8825299 64.5358618,10.1956923 64.5358618,7.77791453 C64.5358618,5.29928205 62.826449,3.63329915 60.5682301,3.63329915 M68.1981066,7.75774359 C68.259047,12.0038974 64.9018466,15.1939829 60.5274891,15.1331282 C56.2346137,15.1939829 52.8770709,12.0038974 52.958553,7.79842735 C52.8976126,3.55193162 56.254813,0.321504274 60.5682301,0.382358974 C64.9425876,0.321504274 68.259047,3.51124786 68.1981066,7.75774359" id="Fill-10"></path>
                        <path d="M75.8679025,3.89753846 L74.321454,3.89753846 C74.0773499,3.89753846 74.0164095,3.9785641 74.0164095,4.20215385 L74.0164095,6.86369231 C74.0164095,7.10745299 74.0773499,7.18882051 74.321454,7.18882051 L75.8679025,7.18882051 C77.5567736,7.18882051 78.350026,6.64010256 78.350026,5.50232479 C78.350026,4.36454701 77.5567736,3.89753846 75.8679025,3.89753846 L75.8679025,3.89753846 Z M76.010325,0.646598291 C79.998156,0.646598291 82.0126132,2.23121368 82.0126132,5.3194188 C82.0126132,7.27018803 81.0967952,8.6517265 79.5506891,9.44420513 L82.7041842,14.218906 C82.8058657,14.3611282 82.8466067,14.4831795 82.8466067,14.5843761 C82.8466067,14.7672821 82.6839848,14.8688205 82.378598,14.8688205 L79.6318288,14.8688205 C79.0621387,14.8688205 78.8180347,14.7265983 78.5129902,14.2592479 L76.213688,10.5614701 C76.0712654,10.3382222 75.9493846,10.2773675 75.6847389,10.2773675 L74.321454,10.2773675 C74.0773499,10.2773675 74.0164095,10.3382222 74.0164095,10.5819829 L74.0164095,14.3409573 C74.0164095,14.7265983 73.8534453,14.8688205 73.4669187,14.8688205 L71.0049946,14.8688205 C70.6592091,14.8688205 70.4760455,14.6862564 70.4760455,14.3409573 L70.4760455,1.17480342 C70.4760455,0.788478632 70.6592091,0.646598291 71.0049946,0.646598291 L76.010325,0.646598291 Z" id="Fill-12"></path>
                        <path d="M83.1510007,0.910632479 C83.1510007,0.727726496 83.2934232,0.646700855 83.5782683,0.646700855 L86.3859779,0.646700855 C86.8947276,0.646700855 87.0778912,0.727726496 87.3421946,1.21558974 L90.1502466,6.17319658 L92.9579562,1.21558974 C93.222602,0.727726496 93.4054232,0.646700855 93.9141729,0.646700855 L96.6202011,0.646700855 C96.9050462,0.646700855 97.0474687,0.727726496 97.0474687,0.910632479 C97.0474687,1.01251282 97.0067276,1.1137094 96.9255879,1.23576068 L91.8997157,9.60670085 L91.8997157,14.3407179 C91.8997157,14.6860171 91.7576355,14.8689231 91.371109,14.8689231 L88.8886431,14.8689231 C88.5428576,14.8689231 88.359694,14.6860171 88.359694,14.3407179 L88.359694,9.70823932 L83.2728815,1.23576068 C83.1917417,1.1137094 83.1510007,1.01251282 83.1510007,0.910632479" id="Fill-14"></path>
                    </g>
                </g>
            </g>
        </g>
    </g>
</svg>